<svg width="419" height="58" viewBox="0 0 419 58" fill="none" xmlns="http://www.w3.org/2000/svg">
<rect x="0.886719" y="0.494141" width="418.075" height="57.4526" rx="15" fill="url(#paint0_linear_0_1)"/>
<path d="M149.9 19.76V34H147.52V21.84H141.16V34H138.76V19.76H149.9ZM153.428 34V19.76H158.568C160.208 19.76 161.468 20.16 162.348 20.96C163.228 21.76 163.668 22.84 163.668 24.2C163.668 25.5733 163.228 26.66 162.348 27.46C161.468 28.26 160.208 28.66 158.568 28.66H155.828V34H153.428ZM158.288 21.78H155.828V26.64H158.288C160.235 26.64 161.208 25.8267 161.208 24.2C161.208 22.5867 160.235 21.78 158.288 21.78ZM166.943 21.46C168.129 20.1267 169.743 19.46 171.783 19.46C173.823 19.46 175.429 20.1267 176.603 21.46C177.789 22.78 178.383 24.5867 178.383 26.88C178.383 29.1733 177.789 30.9867 176.603 32.32C175.429 33.64 173.823 34.3 171.783 34.3C169.743 34.3 168.129 33.64 166.943 32.32C165.769 30.9867 165.183 29.1733 165.183 26.88C165.183 24.5867 165.769 22.78 166.943 21.46ZM174.783 23.02C174.049 22.0733 173.049 21.6 171.783 21.6C170.516 21.6 169.509 22.0733 168.763 23.02C168.029 23.9667 167.663 25.2533 167.663 26.88C167.663 28.5067 168.029 29.7933 168.763 30.74C169.509 31.6867 170.516 32.16 171.783 32.16C173.049 32.16 174.049 31.6867 174.783 30.74C175.529 29.7933 175.903 28.5067 175.903 26.88C175.903 25.2533 175.529 23.9667 174.783 23.02ZM191.918 31.92H193.638V37.2H191.358V34H181.378V37.2H179.098V31.92H180.678C181.132 31.0667 181.478 29.7467 181.718 27.96C181.972 26.16 182.132 23.4267 182.198 19.76H191.918V31.92ZM189.518 31.92V21.84H184.498C184.378 26.5467 183.952 29.9067 183.218 31.92H189.518ZM196.435 21.46C197.622 20.1267 199.235 19.46 201.275 19.46C203.315 19.46 204.922 20.1267 206.095 21.46C207.282 22.78 207.875 24.5867 207.875 26.88C207.875 29.1733 207.282 30.9867 206.095 32.32C204.922 33.64 203.315 34.3 201.275 34.3C199.235 34.3 197.622 33.64 196.435 32.32C195.262 30.9867 194.675 29.1733 194.675 26.88C194.675 24.5867 195.262 22.78 196.435 21.46ZM204.275 23.02C203.542 22.0733 202.542 21.6 201.275 21.6C200.008 21.6 199.002 22.0733 198.255 23.02C197.522 23.9667 197.155 25.2533 197.155 26.88C197.155 28.5067 197.522 29.7933 198.255 30.74C199.002 31.6867 200.008 32.16 201.275 32.16C202.542 32.16 203.542 31.6867 204.275 30.74C205.022 29.7933 205.395 28.5067 205.395 26.88C205.395 25.2533 205.022 23.9667 204.275 23.02ZM220.949 19.76V34H218.549V21.84H213.989C213.882 25.2933 213.656 27.9 213.309 29.66C212.976 31.42 212.509 32.6 211.909 33.2C211.322 33.8 210.476 34.1 209.369 34.1C208.996 34.1 208.709 34.0667 208.509 34V32.02C208.642 32.0467 208.762 32.06 208.869 32.06C209.296 32.06 209.642 31.9667 209.909 31.78C210.176 31.5933 210.416 31.26 210.629 30.78C210.856 30.3 211.029 29.5867 211.149 28.64C211.282 27.68 211.389 26.5 211.469 25.1C211.562 23.7 211.636 21.92 211.689 19.76H220.949ZM239.867 19.76L235.027 26.54L240.387 34H237.507L232.727 26.82H232.687V34H230.327V26.82H230.287L225.487 34H222.607L227.967 26.54L223.147 19.76H225.927L230.287 26.42H230.327V19.76H232.687V26.42H232.727L237.067 19.76H239.867ZM241.846 19.76H244.166V25.36C244.166 27.52 244.126 29.68 244.046 31.84H244.086C245.019 29.8667 246.026 27.8267 247.106 25.72L250.186 19.76H253.626V34H251.326V28.4C251.326 26.48 251.359 24.32 251.426 21.92H251.386C250.453 23.8933 249.446 25.9333 248.366 28.04L245.306 34H241.846V19.76ZM267.026 19.76V21.84H262.346V34H259.966V21.84H255.286V19.76H267.026ZM273.822 34H268.682V19.76H271.082V25.1H273.822C275.462 25.1 276.722 25.5 277.602 26.3C278.482 27.1 278.922 28.1867 278.922 29.56C278.922 30.92 278.482 32 277.602 32.8C276.722 33.6 275.462 34 273.822 34ZM271.082 27.12V31.98H273.542C275.489 31.98 276.462 31.1733 276.462 29.56C276.462 27.9333 275.489 27.12 273.542 27.12H271.082Z" fill="#F5FBFF"/>
<defs>
<linearGradient id="paint0_linear_0_1" x1="0.886719" y1="29.2204" x2="418.962" y2="29.2204" gradientUnits="userSpaceOnUse">
<stop stop-color="#0079C2"/>
<stop offset="1" stop-color="#0079C2"/>
</linearGradient>
</defs>
</svg>
