<svg width="179" height="64" viewBox="0 0 179 64" fill="none" xmlns="http://www.w3.org/2000/svg">
<rect width="179" height="64" rx="8" fill="#821713"/>
<path d="M45.1 22.76V37H42.72V30.64H36.16V37H33.76V22.76H36.16V28.56H42.72V22.76H45.1ZM52.1428 26.54C53.5028 26.54 54.5361 26.8733 55.2428 27.54C55.9628 28.2067 56.3228 29.2 56.3228 30.52V34.32C56.3228 35.4133 56.4095 36.3067 56.5828 37H54.5228C54.4295 36.5867 54.3828 36.1133 54.3828 35.58H54.3428C53.5961 36.6733 52.4561 37.22 50.9228 37.22C49.8828 37.22 49.0495 36.94 48.4228 36.38C47.7961 35.8067 47.4828 35.08 47.4828 34.2C47.4828 33.3333 47.7761 32.64 48.3628 32.12C48.9628 31.6 49.9695 31.2267 51.3828 31C52.2361 30.8533 53.1495 30.7533 54.1228 30.7V30.3C54.1228 28.9 53.4628 28.2 52.1428 28.2C51.5295 28.2 51.0495 28.36 50.7028 28.68C50.3561 29 50.1695 29.4333 50.1428 29.98H47.9028C47.9561 28.9667 48.3428 28.14 49.0628 27.5C49.7961 26.86 50.8228 26.54 52.1428 26.54ZM54.1228 32.68V32.18C53.2561 32.2333 52.4761 32.32 51.7828 32.44C51.0495 32.56 50.5295 32.74 50.2228 32.98C49.9295 33.22 49.7828 33.5733 49.7828 34.04C49.7828 34.4933 49.9361 34.86 50.2428 35.14C50.5628 35.4067 51.0095 35.54 51.5828 35.54C52.3561 35.54 52.9695 35.3133 53.4228 34.86C53.6895 34.58 53.8695 34.2867 53.9628 33.98C54.0695 33.66 54.1228 33.2267 54.1228 32.68ZM66.9064 26.84V37H64.6264V33.14C63.7197 33.3933 62.7797 33.52 61.8064 33.52C60.6464 33.52 59.7464 33.2467 59.1064 32.7C58.4797 32.1533 58.1664 31.38 58.1664 30.38V26.84H60.4464V29.94C60.4464 31.1667 61.1464 31.78 62.5464 31.78C63.2797 31.78 63.9731 31.6667 64.6264 31.44V26.84H66.9064ZM73.6272 26.54C74.9872 26.54 76.0205 26.8733 76.7272 27.54C77.4472 28.2067 77.8072 29.2 77.8072 30.52V34.32C77.8072 35.4133 77.8939 36.3067 78.0672 37H76.0072C75.9139 36.5867 75.8672 36.1133 75.8672 35.58H75.8272C75.0805 36.6733 73.9405 37.22 72.4072 37.22C71.3672 37.22 70.5339 36.94 69.9072 36.38C69.2805 35.8067 68.9672 35.08 68.9672 34.2C68.9672 33.3333 69.2605 32.64 69.8472 32.12C70.4472 31.6 71.4539 31.2267 72.8672 31C73.7205 30.8533 74.6339 30.7533 75.6072 30.7V30.3C75.6072 28.9 74.9472 28.2 73.6272 28.2C73.0139 28.2 72.5339 28.36 72.1872 28.68C71.8405 29 71.6539 29.4333 71.6272 29.98H69.3872C69.4405 28.9667 69.8272 28.14 70.5472 27.5C71.2805 26.86 72.3072 26.54 73.6272 26.54ZM75.6072 32.68V32.18C74.7405 32.2333 73.9605 32.32 73.2672 32.44C72.5339 32.56 72.0139 32.74 71.7072 32.98C71.4139 33.22 71.2672 33.5733 71.2672 34.04C71.2672 34.4933 71.4205 34.86 71.7272 35.14C72.0472 35.4067 72.4939 35.54 73.0672 35.54C73.8405 35.54 74.4539 35.3133 74.9072 34.86C75.1739 34.58 75.3539 34.2867 75.4472 33.98C75.5539 33.66 75.6072 33.2267 75.6072 32.68ZM87.9169 26.84V28.58H84.5769V37H82.2769V28.58H78.9169V26.84H87.9169ZM91.5798 26.84V30.36H93.9398C95.2332 30.36 96.2198 30.6467 96.8998 31.22C97.5932 31.7933 97.9398 32.6133 97.9398 33.68C97.9398 34.7467 97.5932 35.5667 96.8998 36.14C96.2198 36.7133 95.2332 37 93.9398 37H89.2998V26.84H91.5798ZM93.6998 32.06H91.5798V35.3H93.6998C94.9932 35.3 95.6398 34.76 95.6398 33.68C95.6398 32.6 94.9932 32.06 93.6998 32.06ZM114.671 26.84V37H112.371V33.16C112.371 31.88 112.404 30.4533 112.471 28.88H112.431C111.858 30.1467 111.178 31.48 110.391 32.88L108.051 37H104.671V26.84H106.971V30.7C106.971 32.1267 106.931 33.5467 106.851 34.96H106.891C107.518 33.6267 108.204 32.2933 108.951 30.96L111.291 26.84H114.671ZM124.501 26.84V28.58H119.881V37H117.601V26.84H124.501ZM131.455 26.58C132.748 26.58 133.775 27.0667 134.535 28.04C135.308 29 135.695 30.2933 135.695 31.92C135.695 33.5467 135.315 34.84 134.555 35.8C133.795 36.76 132.768 37.24 131.475 37.24C130.835 37.24 130.248 37.1067 129.715 36.84C129.195 36.56 128.788 36.1733 128.495 35.68H128.455V40.7H126.175V26.84H128.395V28.24H128.435C128.728 27.72 129.142 27.3133 129.675 27.02C130.222 26.7267 130.815 26.58 131.455 26.58ZM130.795 28.36C130.048 28.36 129.448 28.68 128.995 29.32C128.555 29.9467 128.335 30.8133 128.335 31.92C128.335 33.0133 128.555 33.88 128.995 34.52C129.448 35.16 130.048 35.48 130.795 35.48C131.568 35.48 132.182 35.16 132.635 34.52C133.088 33.8667 133.315 33 133.315 31.92C133.315 30.84 133.088 29.98 132.635 29.34C132.182 28.6867 131.568 28.36 130.795 28.36ZM143.836 26.84H146.196L142.276 37.44C141.796 38.72 141.23 39.6 140.576 40.08C139.936 40.56 139.023 40.8 137.836 40.8C137.423 40.8 137.043 40.7533 136.696 40.66V38.8C137.003 38.8933 137.323 38.94 137.656 38.94C138.27 38.94 138.736 38.8067 139.056 38.54C139.39 38.2733 139.676 37.7867 139.916 37.08L136.196 26.84H138.636L141.176 34.4H141.216L143.836 26.84Z" fill="white"/>
</svg>
