<svg width="85" height="86" viewBox="0 0 85 86" fill="none" xmlns="http://www.w3.org/2000/svg">
<g filter="url(#filter0_d_1091_8205)">
<rect x="11" y="8" width="63" height="63" rx="26.6333" fill="white"/>
<rect x="13.7417" y="10.7417" width="57.5167" height="57.5167" rx="23.8917" stroke="#2B94CA" stroke-width="5.48333"/>
</g>
<path d="M56.896 33.9979L39.3293 23.8403C38.3787 23.2869 37.2999 22.997 36.2022 23C35.1045 23.0031 34.0272 23.299 33.0797 23.8576C32.1322 24.4163 31.3482 25.2179 30.8073 26.1809C30.2665 27.144 29.9881 28.2342 30.0004 29.3408V49.7294C30.0004 51.3925 30.6556 52.9874 31.822 54.1634C32.9883 55.3393 34.5702 56 36.2197 56C37.3116 55.9981 38.3838 55.7073 39.3293 55.1566L56.896 44.999C57.84 44.4482 58.6236 43.6568 59.1684 42.7042C59.7132 41.7517 60 40.6714 60 39.5718C60 38.4722 59.7132 37.3919 59.1684 36.4394C58.6236 35.4868 57.84 34.6954 56.896 34.1446V33.9979ZM55.0775 41.6803L37.5108 51.9846C37.1171 52.2096 36.6722 52.3279 36.2197 52.3279C35.7671 52.3279 35.3223 52.2096 34.9285 51.9846C34.5359 51.7561 34.2099 51.4273 33.9832 51.0315C33.7566 50.6356 33.6373 50.1865 33.6374 49.7294V29.2675C33.6373 28.8104 33.7566 28.3613 33.9832 27.9655C34.2099 27.5696 34.5359 27.2408 34.9285 27.0123C35.3239 26.7907 35.7674 26.6711 36.2197 26.6639C36.6716 26.6733 37.1146 26.7928 37.5108 27.0123L55.0775 37.2432C55.4703 37.4717 55.7965 37.8004 56.0233 38.1963C56.25 38.5922 56.3694 39.0413 56.3694 39.4985C56.3694 39.9556 56.25 40.4047 56.0233 40.8006C55.7965 41.1965 55.4703 41.5252 55.0775 41.7537V41.6803Z" fill="#0F6894"/>
<defs>
<filter id="filter0_d_1091_8205" x="0.0333338" y="0.166667" width="84.9333" height="84.9333" filterUnits="userSpaceOnUse" color-interpolation-filters="sRGB">
<feFlood flood-opacity="0" result="BackgroundImageFix"/>
<feColorMatrix in="SourceAlpha" type="matrix" values="0 0 0 0 0 0 0 0 0 0 0 0 0 0 0 0 0 0 127 0" result="hardAlpha"/>
<feOffset dy="3.13333"/>
<feGaussianBlur stdDeviation="5.48333"/>
<feComposite in2="hardAlpha" operator="out"/>
<feColorMatrix type="matrix" values="0 0 0 0 0 0 0 0 0 0 0 0 0 0 0 0 0 0 0.25 0"/>
<feBlend mode="normal" in2="BackgroundImageFix" result="effect1_dropShadow_1091_8205"/>
<feBlend mode="normal" in="SourceGraphic" in2="effect1_dropShadow_1091_8205" result="shape"/>
</filter>
</defs>
</svg>
