<svg width="492" height="58" viewBox="0 0 492 58" fill="none" xmlns="http://www.w3.org/2000/svg">
<rect width="492" height="58" rx="15" fill="url(#paint0_linear_1606_21998)"/>
<path d="M151.48 21.912V39H148.624V24.408H140.992V39H138.112V21.912H151.48ZM156.674 23.952C158.098 22.352 160.034 21.552 162.482 21.552C164.93 21.552 166.858 22.352 168.266 23.952C169.69 25.536 170.402 27.704 170.402 30.456C170.402 33.208 169.69 35.384 168.266 36.984C166.858 38.568 164.93 39.36 162.482 39.36C160.034 39.36 158.098 38.568 156.674 36.984C155.266 35.384 154.562 33.208 154.562 30.456C154.562 27.704 155.266 25.536 156.674 23.952ZM166.082 25.824C165.202 24.688 164.002 24.12 162.482 24.12C160.962 24.12 159.754 24.688 158.858 25.824C157.978 26.96 157.538 28.504 157.538 30.456C157.538 32.408 157.978 33.952 158.858 35.088C159.754 36.224 160.962 36.792 162.482 36.792C164.002 36.792 165.202 36.224 166.082 35.088C166.978 33.952 167.426 32.408 167.426 30.456C167.426 28.504 166.978 26.96 166.082 25.824ZM186.09 21.912V39H183.21V24.408H177.738C177.61 28.552 177.338 31.68 176.922 33.792C176.522 35.904 175.962 37.32 175.242 38.04C174.538 38.76 173.522 39.12 172.194 39.12C171.746 39.12 171.402 39.08 171.162 39V36.624C171.322 36.656 171.466 36.672 171.594 36.672C172.106 36.672 172.522 36.56 172.842 36.336C173.162 36.112 173.45 35.712 173.706 35.136C173.978 34.56 174.186 33.704 174.33 32.568C174.49 31.416 174.618 30 174.714 28.32C174.826 26.64 174.914 24.504 174.978 21.912H186.09ZM203.915 21.912V39H201.059V31.368H193.187V39H190.307V21.912H193.187V28.872H201.059V21.912H203.915ZM214.335 39H208.167V21.912H211.047V28.32H214.335C216.303 28.32 217.815 28.8 218.871 29.76C219.927 30.72 220.455 32.024 220.455 33.672C220.455 35.304 219.927 36.6 218.871 37.56C217.815 38.52 216.303 39 214.335 39ZM211.047 30.744V36.576H213.999C216.335 36.576 217.503 35.608 217.503 33.672C217.503 31.72 216.335 30.744 213.999 30.744H211.047ZM226.071 21.912V39H223.191V21.912H226.071ZM230.292 21.912H233.076V28.632C233.076 31.224 233.028 33.816 232.932 36.408H232.98C234.1 34.04 235.308 31.592 236.604 29.064L240.3 21.912H244.428V39H241.668V32.28C241.668 29.976 241.708 27.384 241.788 24.504H241.74C240.62 26.872 239.412 29.32 238.116 31.848L234.444 39H230.292V21.912ZM239.244 17.352H241.188C241.108 18.472 240.716 19.344 240.012 19.968C239.324 20.576 238.388 20.88 237.204 20.88C236.036 20.88 235.1 20.576 234.396 19.968C233.708 19.344 233.324 18.472 233.244 17.352H235.164C235.292 18.504 235.972 19.08 237.204 19.08C238.436 19.08 239.116 18.504 239.244 17.352ZM254.198 39V21.912H260.078C262.062 21.912 263.55 22.304 264.542 23.088C265.55 23.872 266.054 24.936 266.054 26.28C266.054 28.216 265.086 29.544 263.15 30.264V30.312C265.342 30.824 266.438 32.16 266.438 34.32C266.438 35.76 265.918 36.904 264.878 37.752C263.838 38.584 262.398 39 260.558 39H254.198ZM259.934 31.464H257.078V36.6H260.126C261.294 36.6 262.15 36.392 262.694 35.976C263.238 35.56 263.51 34.92 263.51 34.056C263.51 33.192 263.222 32.544 262.646 32.112C262.086 31.68 261.182 31.464 259.934 31.464ZM260.054 24.288H257.078V29.16H259.91C262.15 29.16 263.27 28.344 263.27 26.712C263.27 25.096 262.198 24.288 260.054 24.288ZM282.871 21.912V39H280.015V24.408H272.383V39H269.503V21.912H282.871ZM298.528 21.912V24.408H289.984V29.04H298V31.512H289.984V36.504H298.768V39H287.104V21.912H298.528ZM302.104 39V21.912H308.272C310.24 21.912 311.752 22.392 312.808 23.352C313.864 24.312 314.392 25.608 314.392 27.24C314.392 28.888 313.864 30.192 312.808 31.152C311.752 32.112 310.24 32.592 308.272 32.592H304.984V39H302.104ZM307.936 24.336H304.984V30.168H307.936C310.272 30.168 311.44 29.192 311.44 27.24C311.44 25.304 310.272 24.336 307.936 24.336ZM328.552 21.912V24.408H320.008V29.04H328.024V31.512H320.008V36.504H328.792V39H317.128V21.912H328.552ZM345.457 36.504H347.521V42.84H344.785V39H332.809V42.84H330.073V36.504H331.969C332.513 35.48 332.929 33.896 333.217 31.752C333.521 29.592 333.713 26.312 333.793 21.912H345.457V36.504ZM342.577 36.504V24.408H336.553C336.409 30.056 335.897 34.088 335.017 36.504H342.577ZM353.058 36.144V39H349.962V36.144H353.058ZM353.202 21.912L352.578 34.512H350.442L349.818 21.912H353.202Z" fill="#F5FBFF"/>
<defs>
<linearGradient id="paint0_linear_1606_21998" x1="0" y1="29" x2="492" y2="29" gradientUnits="userSpaceOnUse">
<stop stop-color="#0058BF"/>
<stop offset="1" stop-color="#0097F2"/>
</linearGradient>
</defs>
</svg>
