<svg width="492" height="58" viewBox="0 0 492 58" fill="none" xmlns="http://www.w3.org/2000/svg">
<rect width="492" height="58" rx="15" fill="url(#paint0_linear_0_1)"/>
<path d="M133.35 17.64V39H129.78V20.76H120.24V39H116.64V17.64H133.35ZM139.842 20.19C141.622 18.19 144.042 17.19 147.102 17.19C150.162 17.19 152.572 18.19 154.332 20.19C156.112 22.17 157.002 24.88 157.002 28.32C157.002 31.76 156.112 34.48 154.332 36.48C152.572 38.46 150.162 39.45 147.102 39.45C144.042 39.45 141.622 38.46 139.842 36.48C138.082 34.48 137.202 31.76 137.202 28.32C137.202 24.88 138.082 22.17 139.842 20.19ZM151.602 22.53C150.502 21.11 149.002 20.4 147.102 20.4C145.202 20.4 143.692 21.11 142.572 22.53C141.472 23.95 140.922 25.88 140.922 28.32C140.922 30.76 141.472 32.69 142.572 34.11C143.692 35.53 145.202 36.24 147.102 36.24C149.002 36.24 150.502 35.53 151.602 34.11C152.722 32.69 153.282 30.76 153.282 28.32C153.282 25.88 152.722 23.95 151.602 22.53ZM176.613 17.64V39H173.013V20.76H166.173C166.013 25.94 165.673 29.85 165.153 32.49C164.653 35.13 163.953 36.9 163.053 37.8C162.173 38.7 160.903 39.15 159.243 39.15C158.683 39.15 158.253 39.1 157.953 39V36.03C158.153 36.07 158.333 36.09 158.493 36.09C159.133 36.09 159.653 35.95 160.053 35.67C160.453 35.39 160.813 34.89 161.133 34.17C161.473 33.45 161.733 32.38 161.913 30.96C162.113 29.52 162.273 27.75 162.393 25.65C162.533 23.55 162.643 20.88 162.723 17.64H176.613ZM198.894 17.64V39H195.324V29.46H185.484V39H181.884V17.64L185.484 17.64V26.34H195.324V17.64H198.894ZM211.918 39H204.208V17.64H207.808V25.65L211.918 25.65C214.378 25.65 216.268 26.25 217.588 27.45C218.908 28.65 219.568 30.28 219.568 32.34C219.568 34.38 218.908 36 217.588 37.2C216.268 38.4 214.378 39 211.918 39ZM207.808 28.68V35.97H211.498C214.418 35.97 215.878 34.76 215.878 32.34C215.878 29.9 214.418 28.68 211.498 28.68L207.808 28.68ZM226.588 17.64V39H222.988V17.64H226.588ZM231.865 17.64H235.345V26.04C235.345 29.28 235.285 32.52 235.165 35.76H235.225C236.625 32.8 238.135 29.74 239.755 26.58L244.375 17.64H249.535V39H246.085V30.6C246.085 27.72 246.135 24.48 246.235 20.88H246.175C244.775 23.84 243.265 26.9 241.645 30.06L237.055 39H231.865V17.64ZM243.055 11.94H245.485C245.385 13.34 244.895 14.43 244.015 15.21C243.155 15.97 241.985 16.35 240.505 16.35C239.045 16.35 237.875 15.97 236.995 15.21C236.135 14.43 235.655 13.34 235.555 11.94H237.955C238.115 13.38 238.965 14.1 240.505 14.1C242.045 14.1 242.895 13.38 243.055 11.94ZM261.747 39V17.64H269.097C271.577 17.64 273.437 18.13 274.677 19.11C275.937 20.09 276.567 21.42 276.567 23.1C276.567 25.52 275.357 27.18 272.937 28.08V28.14C275.677 28.78 277.047 30.45 277.047 33.15C277.047 34.95 276.397 36.38 275.097 37.44C273.797 38.48 271.997 39 269.697 39H261.747ZM268.917 29.58H265.347V36H269.157C270.617 36 271.687 35.74 272.367 35.22C273.047 34.7 273.387 33.9 273.387 32.82C273.387 31.74 273.027 30.93 272.307 30.39C271.607 29.85 270.477 29.58 268.917 29.58ZM269.067 20.61H265.347V26.7H268.887C271.687 26.7 273.087 25.68 273.087 23.64C273.087 21.62 271.747 20.61 269.067 20.61ZM297.588 17.64V39H294.018V20.76L284.478 20.76V39H280.878V17.64H297.588ZM317.16 17.64V20.76H306.48V26.55H316.5V29.64H306.48V35.88H317.46V39L302.88 39V17.64H317.16ZM321.63 39V17.64H329.34C331.8 17.64 333.69 18.24 335.01 19.44C336.33 20.64 336.99 22.26 336.99 24.3C336.99 26.36 336.33 27.99 335.01 29.19C333.69 30.39 331.8 30.99 329.34 30.99H325.23V39H321.63ZM328.92 20.67H325.23V27.96H328.92C331.84 27.96 333.3 26.74 333.3 24.3C333.3 21.88 331.84 20.67 328.92 20.67ZM354.69 17.64V20.76H344.01V26.55H354.03V29.64H344.01V35.88H354.99V39H340.41V17.64H354.69ZM375.821 35.88H378.401V43.8H374.981V39H360.011V43.8H356.591V35.88H358.961C359.641 34.6 360.161 32.62 360.521 29.94C360.901 27.24 361.141 23.14 361.241 17.64H375.821V35.88ZM372.221 35.88V20.76H364.691C364.511 27.82 363.871 32.86 362.771 35.88H372.221ZM385.322 35.43V39H381.452V35.43H385.322ZM385.502 17.64L384.722 33.39H382.052L381.272 17.64H385.502Z" fill="#F5FBFF"/>
<defs>
<linearGradient id="paint0_linear_0_1" x1="0" y1="29" x2="492" y2="29" gradientUnits="userSpaceOnUse">
<stop stop-color="#0079C2"/>
<stop offset="1" stop-color="#0097F2"/>
</linearGradient>
</defs>
</svg>
