<svg width="118" height="118" viewBox="0 0 118 118" fill="none" xmlns="http://www.w3.org/2000/svg">
<g clip-path="url(#clip0_655_4906)">
<path d="M40.3584 61.2375C39.1184 58.598 35.974 57.4636 33.3344 58.7036C30.6949 59.9436 29.5605 63.088 30.8005 65.7276L38.2839 81.6574C44.4832 94.8536 60.2075 100.526 73.4037 94.327C86.6 88.1277 92.2726 72.4034 86.0733 59.2071L80.0866 46.4633C78.8466 43.8237 75.7022 42.6894 73.0626 43.9294C70.4231 45.1694 69.2887 48.3138 70.5287 50.9534L69.032 47.7674C67.792 45.1278 64.6476 43.9935 62.0081 45.2335C59.3685 46.4735 58.2341 49.6179 59.4742 52.2574L57.9775 49.0715C56.7375 46.4319 53.5931 45.2976 50.9535 46.5376C48.3139 47.7776 47.1796 50.9219 48.4196 53.5615L37.9428 31.2598C36.7028 28.6202 33.5584 27.4859 30.9189 28.7259C28.2793 29.9659 27.1449 33.1103 28.3849 35.7498L45.5968 72.3884L40.3584 61.2375Z" fill="#191931" fill-opacity="0.6" stroke="white" stroke-width="4" stroke-miterlimit="10" stroke-linecap="round" stroke-linejoin="round"/>
</g>
<defs>
<clipPath id="clip0_655_4906">
<rect width="88" height="88" fill="white" transform="translate(0 37.417) rotate(-25.1629)"/>
</clipPath>
</defs>
</svg>
