<svg width="127" height="127" viewBox="0 0 127 127" fill="none" xmlns="http://www.w3.org/2000/svg">
<g filter="url(#filter0_d_1201_10031)">
<path d="M11 34.6333C11 19.9241 22.9241 8 37.6333 8H88.55C103.259 8 115.183 19.9241 115.183 34.6333V85.55C115.183 100.259 103.259 112.183 88.55 112.183H37.6333C22.9241 112.183 11 100.259 11 85.55V34.6333Z" fill="#0F6894"/>
<path d="M37.6333 10.7417H88.55C101.745 10.7417 112.442 21.4383 112.442 34.6333V85.55C112.442 98.745 101.745 109.442 88.55 109.442H37.6333C24.4383 109.442 13.7417 98.745 13.7417 85.55V34.6333C13.7417 21.4383 24.4383 10.7417 37.6333 10.7417Z" stroke="#2B94CA" stroke-width="5.48333"/>
</g>
<path d="M50 53.0002L63.3167 66.3169L76.6333 53.0002" stroke="white" stroke-width="6.26667"/>
<defs>
<filter id="filter0_d_1201_10031" x="0.0333338" y="0.166667" width="126.117" height="126.116" filterUnits="userSpaceOnUse" color-interpolation-filters="sRGB">
<feFlood flood-opacity="0" result="BackgroundImageFix"/>
<feColorMatrix in="SourceAlpha" type="matrix" values="0 0 0 0 0 0 0 0 0 0 0 0 0 0 0 0 0 0 127 0" result="hardAlpha"/>
<feOffset dy="3.13333"/>
<feGaussianBlur stdDeviation="5.48333"/>
<feComposite in2="hardAlpha" operator="out"/>
<feColorMatrix type="matrix" values="0 0 0 0 0 0 0 0 0 0 0 0 0 0 0 0 0 0 0.25 0"/>
<feBlend mode="normal" in2="BackgroundImageFix" result="effect1_dropShadow_1201_10031"/>
<feBlend mode="normal" in="SourceGraphic" in2="effect1_dropShadow_1201_10031" result="shape"/>
</filter>
</defs>
</svg>
