<svg width="85" height="85" viewBox="0 0 85 85" fill="none" xmlns="http://www.w3.org/2000/svg">
<g filter="url(#filter0_d_1201_10036)">
<rect x="11" y="8" width="62.6667" height="62.6667" rx="26.6333" fill="#0070BA"/>
<rect x="13.7417" y="10.7417" width="57.1833" height="57.1833" rx="23.8917" stroke="#003D76" stroke-width="5.48333"/>
</g>
<path d="M43.8566 23.1646C43.5319 23.0239 43.1756 22.9721 42.8243 23.0143C42.473 23.0565 42.1392 23.1913 41.8569 23.4049L32.2985 30.9732H24.9997C24.4693 30.9732 23.9607 31.1842 23.5857 31.5597C23.2107 31.9351 23 32.4444 23 32.9754V44.9887C23 45.5197 23.2107 46.029 23.5857 46.4045C23.9607 46.78 24.4693 46.9909 24.9997 46.9909H32.2985L41.7569 54.5593C42.1088 54.8419 42.5457 54.9971 42.9967 54.9998C43.2954 55.0047 43.5907 54.9359 43.8566 54.7995C44.1969 54.6373 44.4844 54.382 44.6861 54.0632C44.8878 53.7443 44.9953 53.3749 44.9964 52.9975V24.9666C44.9953 24.5892 44.8878 24.2198 44.6861 23.901C44.4844 23.5821 44.1969 23.3269 43.8566 23.1646ZM40.9971 48.8329L34.2382 43.427C33.8863 43.1443 33.4494 42.9891 32.9984 42.9865H26.9993V34.9776H32.9984C33.4494 34.975 33.8863 34.8198 34.2382 34.5372L40.9971 29.1312V48.8329Z" fill="white"/>
<path d="M48 31L64 47" stroke="white" stroke-width="3" stroke-linecap="round"/>
<path d="M64 31L48 47" stroke="white" stroke-width="3" stroke-linecap="round"/>
<defs>
<filter id="filter0_d_1201_10036" x="0.0333338" y="0.166667" width="84.6003" height="84.5998" filterUnits="userSpaceOnUse" color-interpolation-filters="sRGB">
<feFlood flood-opacity="0" result="BackgroundImageFix"/>
<feColorMatrix in="SourceAlpha" type="matrix" values="0 0 0 0 0 0 0 0 0 0 0 0 0 0 0 0 0 0 127 0" result="hardAlpha"/>
<feOffset dy="3.13333"/>
<feGaussianBlur stdDeviation="5.48333"/>
<feComposite in2="hardAlpha" operator="out"/>
<feColorMatrix type="matrix" values="0 0 0 0 0 0 0 0 0 0 0 0 0 0 0 0 0 0 0.25 0"/>
<feBlend mode="normal" in2="BackgroundImageFix" result="effect1_dropShadow_1201_10036"/>
<feBlend mode="normal" in="SourceGraphic" in2="effect1_dropShadow_1201_10036" result="shape"/>
</filter>
</defs>
</svg>
