<svg width="85" height="86" viewBox="0 0 85 86" fill="none" xmlns="http://www.w3.org/2000/svg">
<g filter="url(#filter0_d_1091_8206)">
<rect x="11" y="8" width="63" height="63" rx="26.6333" fill="white"/>
<rect x="13.7417" y="10.7417" width="57.5167" height="57.5167" rx="23.8917" stroke="#2B94CA" stroke-width="5.48333"/>
</g>
<path d="M49.0714 23C47.7643 23 46.5107 23.5215 45.5864 24.4498C44.6621 25.3781 44.1429 26.6372 44.1429 27.95V51.05C44.1429 52.3628 44.6621 53.6219 45.5864 54.5502C46.5107 55.4785 47.7643 56 49.0714 56C50.3786 56 51.6322 55.4785 52.5565 54.5502C53.4807 53.6219 54 52.3628 54 51.05V27.95C54 26.6372 53.4807 25.3781 52.5565 24.4498C51.6322 23.5215 50.3786 23 49.0714 23ZM50.7143 51.05C50.7143 51.4876 50.5412 51.9073 50.2331 52.2167C49.925 52.5262 49.5071 52.7 49.0714 52.7C48.6357 52.7 48.2178 52.5262 47.9098 52.2167C47.6017 51.9073 47.4286 51.4876 47.4286 51.05V27.95C47.4286 27.5124 47.6017 27.0927 47.9098 26.7833C48.2178 26.4738 48.6357 26.3 49.0714 26.3C49.5071 26.3 49.925 26.4738 50.2331 26.7833C50.5412 27.0927 50.7143 27.5124 50.7143 27.95V51.05ZM35.9286 23C34.6214 23 33.3678 23.5215 32.4435 24.4498C31.5193 25.3781 31 26.6372 31 27.95V51.05C31 52.3628 31.5193 53.6219 32.4435 54.5502C33.3678 55.4785 34.6214 56 35.9286 56C37.2357 56 38.4893 55.4785 39.4136 54.5502C40.3379 53.6219 40.8571 52.3628 40.8571 51.05V27.95C40.8571 26.6372 40.3379 25.3781 39.4136 24.4498C38.4893 23.5215 37.2357 23 35.9286 23ZM37.5714 51.05C37.5714 51.4876 37.3983 51.9073 37.0902 52.2167C36.7822 52.5262 36.3643 52.7 35.9286 52.7C35.4929 52.7 35.075 52.5262 34.7669 52.2167C34.4588 51.9073 34.2857 51.4876 34.2857 51.05V27.95C34.2857 27.5124 34.4588 27.0927 34.7669 26.7833C35.075 26.4738 35.4929 26.3 35.9286 26.3C36.3643 26.3 36.7822 26.4738 37.0902 26.7833C37.3983 27.0927 37.5714 27.5124 37.5714 27.95V51.05Z" fill="#0F6894"/>
<defs>
<filter id="filter0_d_1091_8206" x="0.0333338" y="0.166667" width="84.9333" height="84.9333" filterUnits="userSpaceOnUse" color-interpolation-filters="sRGB">
<feFlood flood-opacity="0" result="BackgroundImageFix"/>
<feColorMatrix in="SourceAlpha" type="matrix" values="0 0 0 0 0 0 0 0 0 0 0 0 0 0 0 0 0 0 127 0" result="hardAlpha"/>
<feOffset dy="3.13333"/>
<feGaussianBlur stdDeviation="5.48333"/>
<feComposite in2="hardAlpha" operator="out"/>
<feColorMatrix type="matrix" values="0 0 0 0 0 0 0 0 0 0 0 0 0 0 0 0 0 0 0.25 0"/>
<feBlend mode="normal" in2="BackgroundImageFix" result="effect1_dropShadow_1091_8206"/>
<feBlend mode="normal" in="SourceGraphic" in2="effect1_dropShadow_1091_8206" result="shape"/>
</filter>
</defs>
</svg>
