<svg width="891" height="368" viewBox="0 0 891 368" fill="none" xmlns="http://www.w3.org/2000/svg">
<path d="M890.578 368.001L889.435 333.378L860.023 351.679L890.578 368.001ZM4.51595 168.29C5.61092 167.364 6.74634 166.416 7.9216 165.448L4.10766 160.817C2.91249 161.801 1.75648 162.766 0.640298 163.71L4.51595 168.29ZM15.0003 159.76C17.286 157.964 19.6864 156.116 22.1982 154.219L18.583 149.431C16.0418 151.349 13.6109 153.221 11.2939 155.041L15.0003 159.76ZM29.4936 148.809C31.8734 147.074 34.3361 145.307 36.8795 143.511L33.4189 138.61C30.8512 140.422 28.3639 142.207 25.9592 143.96L29.4936 148.809ZM44.3543 138.312C46.8109 136.629 49.3326 134.925 51.9179 133.203L48.5917 128.209C45.9847 129.946 43.4411 131.665 40.9626 133.363L44.3543 138.312ZM59.5385 128.196C62.0306 126.581 64.5751 124.953 67.1707 123.315L63.9679 118.241C61.3521 119.892 58.7874 121.533 56.2752 123.161L59.5385 128.196ZM74.8941 118.502C77.4542 116.927 80.0592 115.345 82.708 113.757L79.6232 108.611C76.9547 110.211 74.3301 111.805 71.7506 113.391L74.8941 118.502ZM90.5249 109.131C93.1111 107.619 95.7355 106.105 98.3972 104.588L95.427 99.3749C92.7461 100.902 90.1027 102.428 87.4975 103.95L90.5249 109.131ZM106.363 100.107C108.985 98.6514 111.64 97.1952 114.328 95.7404L111.472 90.4638C108.765 91.929 106.091 93.3955 103.45 94.862L106.363 100.107ZM122.353 91.4527C125.028 90.0417 127.733 88.6334 130.468 87.2289L127.726 81.8918C124.972 83.3062 122.248 84.7246 119.554 86.1456L122.353 91.4527ZM138.551 83.1318C141.251 81.7814 143.977 80.436 146.729 79.0966L144.104 73.7015C141.332 75.0505 138.586 76.4055 135.867 77.7655L138.551 83.1318ZM154.937 75.1574C157.661 73.8684 160.408 72.5863 163.178 71.3121L160.671 65.861C157.881 67.1444 155.114 68.4358 152.37 69.7341L154.937 75.1574ZM171.498 67.5413C174.245 66.3144 177.014 65.0961 179.803 63.8874L177.418 58.382C174.608 59.5997 171.819 60.8269 169.051 62.0628L171.498 67.5413ZM188.197 60.3061C190.977 59.1387 193.776 57.9816 196.594 56.8356L194.333 51.2777C191.494 52.4322 188.674 53.5981 185.874 54.7742L188.197 60.3061ZM205.052 53.4523C207.865 52.3463 210.694 51.2522 213.541 50.1707L211.411 44.5618C208.542 45.6516 205.69 46.7542 202.857 47.8686L205.052 53.4523ZM222.066 46.9903C224.908 45.9491 227.766 44.9212 230.64 43.9075L228.644 38.2493C225.747 39.2711 222.866 40.3071 220.002 41.3565L222.066 46.9903ZM239.229 40.9361C242.099 39.9631 244.983 39.0048 247.882 38.062L246.026 32.3562C243.103 33.3068 240.195 34.273 237.303 35.2539L239.229 40.9361ZM256.536 35.3069C259.431 34.4055 262.339 33.5202 265.26 32.6517L263.55 26.9005C260.604 27.7764 257.671 28.6693 254.752 29.5782L256.536 35.3069ZM273.979 30.1208C276.894 29.2951 279.822 28.4868 282.762 27.6965L281.204 21.9022C278.239 22.6995 275.285 23.515 272.344 24.3479L273.979 30.1208ZM291.55 25.3974C294.485 24.6506 297.432 23.9224 300.389 23.2135L298.991 17.3788C296.006 18.0942 293.033 18.8291 290.07 19.5826L291.55 25.3974ZM309.24 21.1574C312.195 20.4929 315.159 19.8483 318.133 19.2242L316.901 13.3521C313.898 13.9822 310.906 14.6329 307.923 15.3036L309.24 21.1574ZM327.04 17.4226C330.012 16.8441 332.993 16.2867 335.982 15.751L334.924 9.84511C331.905 10.3861 328.895 10.949 325.894 11.5331L327.04 17.4226ZM344.939 14.2158C347.926 13.7272 350.922 13.2609 353.924 12.8175L353.048 6.88184C350.014 7.32982 346.988 7.80095 343.971 8.2945L344.939 14.2158ZM362.924 11.5608C365.925 11.166 368.932 10.7947 371.946 10.4476L371.259 4.48699C368.213 4.83788 365.174 5.21314 362.142 5.61204L362.924 11.5608ZM380.981 9.48177C383.992 9.18498 387.009 8.91279 390.032 8.66592L389.543 2.68583C386.487 2.93546 383.436 3.21066 380.392 3.51071L380.981 9.48177ZM399.092 8.00342C402.111 7.80868 405.135 7.63969 408.163 7.49717L407.881 1.5038C404.818 1.64798 401.759 1.81891 398.706 2.01587L399.092 8.00342ZM417.24 7.15027C420.263 7.06164 423.29 6.99989 426.32 6.96571L426.253 0.966088C423.186 1.00068 420.123 1.06317 417.064 1.15285L417.24 7.15027ZM435.402 6.9464C436.917 6.95712 438.434 6.97488 439.951 6.99975L440.049 1.00055C438.513 0.975378 436.978 0.957404 435.445 0.946547L435.402 6.9464ZM439.951 6.99975C441.446 7.02426 442.941 7.06338 444.436 7.11694L444.651 1.12078C443.118 1.06585 441.584 1.02571 440.049 1.00055L439.951 6.99975ZM453.397 7.61007C456.377 7.83095 459.356 8.10803 462.332 8.43995L462.997 2.47693C459.948 2.1369 456.896 1.85292 453.84 1.62648L453.397 7.61007ZM471.237 9.59686C474.194 10.0349 477.148 10.526 480.098 11.0686L481.183 5.16765C478.166 4.61256 475.143 4.11007 472.117 3.66165L471.237 9.59686ZM488.908 12.8435C491.829 13.4829 494.746 14.1719 497.659 14.9091L499.131 9.09238C496.156 8.3396 493.176 7.63576 490.19 6.98229L488.908 12.8435ZM506.341 17.2508C509.218 18.0746 512.091 18.9445 514.959 19.8591L516.782 14.1427C513.858 13.2103 510.928 12.3231 507.993 11.4826L506.341 17.2508ZM523.49 22.7149C526.317 23.7064 529.14 24.7403 531.957 25.8155L534.097 20.2099C531.229 19.1155 528.355 18.0627 525.475 17.0529L523.49 22.7149ZM540.321 29.134C543.096 30.2768 545.865 31.4588 548.628 32.6787L551.051 27.1898C548.243 25.9501 545.428 24.7484 542.606 23.5861L540.321 29.134ZM556.816 36.4114C559.536 37.6907 562.25 39.0059 564.958 40.3558L567.635 34.9861C564.887 33.6162 562.132 32.281 559.369 30.9818L556.816 36.4114ZM572.965 44.4584C575.628 45.8591 578.284 47.2926 580.932 48.7576L583.836 43.5073C581.152 42.0223 578.459 40.5689 575.759 39.1484L572.965 44.4584ZM588.768 53.1951C591.37 54.7029 593.965 56.2405 596.553 57.8068L599.66 52.6739C597.04 51.0882 594.412 49.5311 591.776 48.0036L588.768 53.1951ZM604.228 62.5499C606.771 64.1536 609.307 65.7843 611.834 67.4408L615.123 62.4226C612.567 60.7472 610.002 59.0975 607.428 57.4747L604.228 62.5499ZM619.352 72.4596C621.838 74.1495 624.315 75.8636 626.785 77.601L630.237 72.6939C627.742 70.9383 625.238 69.2058 622.725 67.4974L619.352 72.4596ZM634.148 82.8681C636.579 84.6359 639.002 86.4254 641.416 88.2358L645.016 83.4359C642.579 81.608 640.132 79.8008 637.676 78.0152L634.148 82.8681ZM648.627 93.7261C651.006 95.5647 653.376 97.4228 655.737 99.2995L659.471 94.6026C657.089 92.7092 654.697 90.8341 652.295 88.9783L648.627 93.7261ZM662.791 104.984C665.124 106.889 667.447 108.812 669.76 110.752L673.615 106.154C671.282 104.198 668.939 102.259 666.586 100.337L662.791 104.984ZM676.662 116.612C678.95 118.579 681.227 120.56 683.494 122.557L687.46 118.054C685.175 116.042 682.88 114.044 680.574 112.062L676.662 116.612ZM690.255 128.58C692.497 130.601 694.729 132.635 696.95 134.682L701.016 130.27C698.779 128.208 696.531 126.159 694.272 124.123L690.255 128.58ZM703.577 140.857C705.775 142.927 707.962 145.008 710.137 147.1L714.296 142.775C712.106 140.67 709.904 138.574 707.691 136.489L703.577 140.857ZM716.639 153.418C718.795 155.534 720.939 157.659 723.07 159.793L727.315 155.553C725.17 153.405 723.012 151.266 720.842 149.136L716.639 153.418ZM729.448 166.239C731.565 168.399 733.669 170.566 735.76 172.74L740.084 168.58C737.98 166.393 735.863 164.213 733.734 162.04L729.448 166.239ZM742.013 179.3C744.093 181.501 746.159 183.709 748.212 185.921L752.61 181.839C750.545 179.615 748.467 177.394 746.374 175.179L742.013 179.3ZM754.339 192.581C756.385 194.823 758.417 197.07 760.433 199.319L764.9 195.313C762.872 193.051 760.829 190.793 758.772 188.537L754.339 192.581ZM766.439 206.071C768.452 208.353 770.449 210.635 772.43 212.918L776.961 208.986C774.97 206.691 772.962 204.396 770.939 202.102L766.439 206.071ZM778.331 219.772C780.306 222.085 782.266 224.397 784.208 226.707L788.8 222.846C786.848 220.524 784.879 218.2 782.893 215.876L778.331 219.772ZM790.008 233.659C791.947 236.002 793.869 238.341 795.772 240.675L800.422 236.884C798.509 234.537 796.578 232.187 794.63 229.833L790.008 233.659ZM801.474 247.721C803.378 250.092 805.263 252.456 807.128 254.813L811.833 251.09C809.959 248.722 808.065 246.346 806.152 243.964L801.474 247.721ZM812.733 261.95C814.603 264.348 816.451 266.737 818.279 269.115L823.037 265.46C821.201 263.07 819.343 260.67 817.465 258.261L812.733 261.95ZM823.787 276.337C825.624 278.763 827.438 281.177 829.229 283.578L834.038 279.99C832.239 277.578 830.416 275.153 828.57 272.715L823.787 276.337ZM834.635 290.875C836.442 293.333 838.224 295.775 839.98 298.198L844.839 294.678C843.075 292.243 841.284 289.79 839.469 287.321L834.635 290.875ZM845.275 305.559C847.055 308.052 848.807 310.524 850.529 312.973L855.437 309.521C853.706 307.061 851.947 304.577 850.158 302.072L845.275 305.559ZM855.698 320.376C857.455 322.912 859.179 325.419 860.868 327.896L865.825 324.514C864.127 322.026 862.395 319.507 860.63 316.959L855.698 320.376ZM865.903 335.334C867.634 337.911 869.325 340.45 870.976 342.949L875.982 339.642C874.323 337.131 872.623 334.579 870.884 331.989L865.903 335.334ZM875.94 350.53C877.61 353.101 879.232 355.623 880.807 358.093L885.866 354.866C884.282 352.383 882.651 349.847 880.972 347.262L875.94 350.53Z" fill="#E53643"/>
</svg>
