<svg width="85" height="85" viewBox="0 0 85 85" fill="none" xmlns="http://www.w3.org/2000/svg">
<g filter="url(#filter0_d_160_4248)">
<rect x="11" y="8" width="62.6667" height="62.6667" rx="26.6333" fill="#0070BA"/>
<rect x="13.7417" y="10.7417" width="57.1833" height="57.1833" rx="23.8917" stroke="#003D76" stroke-width="5.48333"/>
</g>
<path d="M55.9565 54.615H53.2864L52.7525 54.0791C47.7618 49.1009 40.8807 46.016 33.2789 45.9944H31.4523V28.3521H33.3003C33.3232 28.3521 33.3502 28.3522 33.3772 28.3522C40.9512 28.3522 47.8049 25.2681 52.7508 20.2871L52.7525 20.2855L53.2864 19.7497H55.9565V54.615ZM35.0883 42.4039C41.6394 42.7988 47.5723 45.1587 52.3819 48.8957L52.3114 48.843V25.5217C50.2661 27.1154 47.9323 28.4931 45.4304 29.5515L45.2271 29.6279C42.2477 30.9009 38.793 31.7329 35.1713 31.9423L35.0883 31.9462V42.4039ZM55.9565 56.2735H52.3113V18H55.9565V56.2735ZM52.3113 29.5932L62.9186 32.2304V42.0394L52.3113 44.7058V29.5932ZM59.2735 35.0809L55.9565 34.2553V40.0291L59.2735 39.1963V35.0809ZM35.0883 28.3521V45.9214H29.7847C24.933 45.9214 21 41.9884 21 37.1367C21 32.2849 24.933 28.352 29.7847 28.352L35.0883 28.3521ZM31.4432 42.2763V31.9972H29.7847C26.9462 31.9972 24.6452 34.2983 24.6452 37.1368C24.6452 39.9752 26.9462 42.2763 29.7847 42.2763H31.4432ZM34.1607 59.8457C31.7321 59.8442 29.6925 58.1803 29.1181 55.9304L29.1104 55.8945L26.2672 44.5418L29.8029 43.6615L32.6461 55.016C32.819 55.7016 33.4301 56.2011 34.1579 56.2011C35.0177 56.2011 35.7147 55.504 35.7147 54.6442C35.7147 54.5122 35.6983 54.384 35.6673 54.2617L35.6697 54.2724L33.2292 44.5418L36.765 43.6616L39.2108 53.4066C39.3039 53.775 39.3572 54.1979 39.3572 54.6333C39.3572 57.5046 37.0357 59.8337 34.1672 59.8458H34.166L34.1607 59.8457Z" fill="white"/>
<defs>
<filter id="filter0_d_160_4248" x="0.0333338" y="0.166667" width="84.6001" height="84.6" filterUnits="userSpaceOnUse" color-interpolation-filters="sRGB">
<feFlood flood-opacity="0" result="BackgroundImageFix"/>
<feColorMatrix in="SourceAlpha" type="matrix" values="0 0 0 0 0 0 0 0 0 0 0 0 0 0 0 0 0 0 127 0" result="hardAlpha"/>
<feOffset dy="3.13333"/>
<feGaussianBlur stdDeviation="5.48333"/>
<feComposite in2="hardAlpha" operator="out"/>
<feColorMatrix type="matrix" values="0 0 0 0 0 0 0 0 0 0 0 0 0 0 0 0 0 0 0.25 0"/>
<feBlend mode="normal" in2="BackgroundImageFix" result="effect1_dropShadow_160_4248"/>
<feBlend mode="normal" in="SourceGraphic" in2="effect1_dropShadow_160_4248" result="shape"/>
</filter>
</defs>
</svg>
