<svg width="85" height="85" viewBox="0 0 85 85" fill="none" xmlns="http://www.w3.org/2000/svg">
<g filter="url(#filter0_d_1201_10032)">
<rect x="11" y="8" width="62.6667" height="62.6667" rx="26.6333" fill="#0070BA"/>
<rect x="13.7417" y="10.7417" width="57.1833" height="57.1833" rx="23.8917" stroke="#003D76" stroke-width="5.48333"/>
</g>
<path d="M43.8566 23.1646C43.5319 23.0239 43.1756 22.9721 42.8243 23.0143C42.473 23.0565 42.1392 23.1913 41.8569 23.4049L32.2985 30.9732H24.9997C24.4693 30.9732 23.9607 31.1842 23.5857 31.5597C23.2107 31.9351 23 32.4444 23 32.9754V44.9887C23 45.5197 23.2107 46.029 23.5857 46.4045C23.9607 46.78 24.4693 46.9909 24.9997 46.9909H32.2985L41.7569 54.5593C42.1088 54.8419 42.5457 54.9971 42.9967 54.9998C43.2954 55.0047 43.5907 54.9359 43.8566 54.7995C44.1969 54.6373 44.4844 54.382 44.6861 54.0632C44.8878 53.7443 44.9953 53.3749 44.9964 52.9975V24.9666C44.9953 24.5892 44.8878 24.2198 44.6861 23.901C44.4844 23.5821 44.1969 23.3269 43.8566 23.1646V23.1646ZM40.9971 48.8329L34.2382 43.427C33.8863 43.1443 33.4494 42.9891 32.9984 42.9865H26.9993V34.9776H32.9984C33.4494 34.975 33.8863 34.8198 34.2382 34.5372L40.9971 29.1312V48.8329ZM58.3142 27.6496C57.9377 27.2725 57.427 27.0607 56.8945 27.0607C56.3619 27.0607 55.8512 27.2725 55.4747 27.6496C55.0981 28.0266 54.8866 28.5379 54.8866 29.0711C54.8866 29.6043 55.0981 30.1157 55.4747 30.4927C56.6522 31.6699 57.5723 33.0794 58.1765 34.6318C58.7807 36.1841 59.0558 37.8453 58.9844 39.5099C58.9129 41.1744 58.4964 42.8059 57.7614 44.3006C57.0264 45.7953 55.9889 47.1206 54.7148 48.1922C54.4054 48.4571 54.1841 48.8103 54.0805 49.2045C53.9769 49.5987 53.9959 50.0152 54.1351 50.3983C54.2742 50.7813 54.5268 51.1128 54.8591 51.3483C55.1914 51.5838 55.5875 51.7121 55.9946 51.7161C56.4618 51.717 56.9146 51.5541 57.2744 51.2556C58.976 49.8286 60.3624 48.0627 61.3454 46.0702C62.3285 44.0776 62.8867 41.902 62.9845 39.6818C63.0823 37.4615 62.7175 35.2452 61.9135 33.1737C61.1095 31.1023 59.8837 29.221 58.3142 27.6496V27.6496ZM52.6552 33.3158C52.4687 33.1291 52.2474 32.981 52.0038 32.88C51.7602 32.779 51.4991 32.727 51.2354 32.727C50.9717 32.727 50.7106 32.779 50.467 32.88C50.2234 32.981 50.0021 33.1291 49.8156 33.3158C49.6292 33.5025 49.4813 33.7241 49.3804 33.968C49.2795 34.2119 49.2275 34.4734 49.2275 34.7374C49.2275 35.0014 49.2795 35.2628 49.3804 35.5067C49.4813 35.7506 49.6292 35.9723 49.8156 36.1589C50.5667 36.9065 50.991 37.9217 50.9954 38.9821C50.9959 39.5654 50.8691 40.1418 50.6238 40.6709C50.3786 41.2001 50.0209 41.6692 49.5757 42.0454C49.3732 42.2135 49.2058 42.42 49.0831 42.6529C48.9604 42.8859 48.8848 43.1408 48.8607 43.403C48.8366 43.6652 48.8643 43.9297 48.9424 44.1812C49.0205 44.4327 49.1473 44.6662 49.3157 44.8686C49.485 45.0699 49.6922 45.2358 49.9256 45.3568C50.159 45.4778 50.4139 45.5516 50.6757 45.5739C50.9376 45.5962 51.2013 45.5666 51.4517 45.4868C51.7022 45.407 51.9344 45.2786 52.1352 45.1088C53.0293 44.3582 53.7486 43.4209 54.2425 42.3625C54.7365 41.3041 54.9933 40.1503 54.9948 38.9821C54.9835 36.8599 54.1438 34.8264 52.6552 33.3158V33.3158Z" fill="white"/>
<defs>
<filter id="filter0_d_1201_10032" x="0.0333338" y="0.166667" width="84.6003" height="84.5998" filterUnits="userSpaceOnUse" color-interpolation-filters="sRGB">
<feFlood flood-opacity="0" result="BackgroundImageFix"/>
<feColorMatrix in="SourceAlpha" type="matrix" values="0 0 0 0 0 0 0 0 0 0 0 0 0 0 0 0 0 0 127 0" result="hardAlpha"/>
<feOffset dy="3.13333"/>
<feGaussianBlur stdDeviation="5.48333"/>
<feComposite in2="hardAlpha" operator="out"/>
<feColorMatrix type="matrix" values="0 0 0 0 0 0 0 0 0 0 0 0 0 0 0 0 0 0 0.25 0"/>
<feBlend mode="normal" in2="BackgroundImageFix" result="effect1_dropShadow_1201_10032"/>
<feBlend mode="normal" in="SourceGraphic" in2="effect1_dropShadow_1201_10032" result="shape"/>
</filter>
</defs>
</svg>
