<svg width="177" height="64" viewBox="0 0 177 64" fill="none" xmlns="http://www.w3.org/2000/svg">
<rect width="177" height="64" rx="8" fill="#D02430"/>
<path d="M44.7832 31V31.7812C44.7832 32.8555 44.6432 33.819 44.3633 34.6719C44.0833 35.5247 43.6829 36.2507 43.1621 36.8496C42.6478 37.4486 42.0293 37.9076 41.3066 38.2266C40.584 38.5391 39.7832 38.6953 38.9043 38.6953C38.0319 38.6953 37.2344 38.5391 36.5117 38.2266C35.7956 37.9076 35.1738 37.4486 34.6465 36.8496C34.1191 36.2507 33.709 35.5247 33.416 34.6719C33.1296 33.819 32.9863 32.8555 32.9863 31.7812V31C32.9863 29.9258 33.1296 28.9655 33.416 28.1191C33.7025 27.2663 34.1061 26.5404 34.627 25.9414C35.1543 25.3359 35.776 24.877 36.4922 24.5645C37.2148 24.2454 38.0124 24.0859 38.8848 24.0859C39.7637 24.0859 40.5645 24.2454 41.2871 24.5645C42.0098 24.877 42.6315 25.3359 43.1523 25.9414C43.6732 26.5404 44.0736 27.2663 44.3535 28.1191C44.64 28.9655 44.7832 29.9258 44.7832 31ZM42.332 31.7812V30.9805C42.332 30.1862 42.2539 29.4863 42.0977 28.8809C41.9479 28.2689 41.7233 27.7578 41.4238 27.3477C41.1309 26.931 40.7695 26.6185 40.3398 26.4102C39.9102 26.1953 39.4251 26.0879 38.8848 26.0879C38.3444 26.0879 37.8626 26.1953 37.4395 26.4102C37.0163 26.6185 36.6549 26.931 36.3555 27.3477C36.0625 27.7578 35.8379 28.2689 35.6816 28.8809C35.5254 29.4863 35.4473 30.1862 35.4473 30.9805V31.7812C35.4473 32.5755 35.5254 33.2786 35.6816 33.8906C35.8379 34.5026 36.0658 35.0202 36.3652 35.4434C36.6712 35.86 37.0358 36.1758 37.459 36.3906C37.8822 36.599 38.3639 36.7031 38.9043 36.7031C39.4512 36.7031 39.9362 36.599 40.3594 36.3906C40.7826 36.1758 41.1406 35.86 41.4336 35.4434C41.7266 35.0202 41.9479 34.5026 42.0977 33.8906C42.2539 33.2786 42.332 32.5755 42.332 31.7812ZM52.5957 24.2812V38.5H50.1641V24.2812H52.5957ZM57.0586 24.2812V26.2344H45.7402V24.2812H57.0586ZM68.0254 24.2812V26.2344H61.4238V38.5H58.9824V24.2812H68.0254ZM75.4668 33.1973H71.7656V31.2539H75.4668C76.1113 31.2539 76.6322 31.1497 77.0293 30.9414C77.4264 30.7331 77.7161 30.4466 77.8984 30.082C78.0872 29.7109 78.1816 29.2878 78.1816 28.8125C78.1816 28.3633 78.0872 27.9434 77.8984 27.5527C77.7161 27.1556 77.4264 26.8366 77.0293 26.5957C76.6322 26.3548 76.1113 26.2344 75.4668 26.2344H72.5176V38.5H70.0664V24.2812H75.4668C76.5671 24.2812 77.5013 24.4766 78.2695 24.8672C79.0443 25.2513 79.6335 25.7852 80.0371 26.4688C80.4408 27.1458 80.6426 27.9206 80.6426 28.793C80.6426 29.7109 80.4408 30.4987 80.0371 31.1562C79.6335 31.8138 79.0443 32.3184 78.2695 32.6699C77.5013 33.0215 76.5671 33.1973 75.4668 33.1973ZM87.2734 33.5488L90.8867 24.2812H93.5918L88.6504 35.9219C88.4941 36.2799 88.3151 36.6283 88.1133 36.9668C87.918 37.2988 87.6803 37.5951 87.4004 37.8555C87.1204 38.1159 86.7819 38.3242 86.3848 38.4805C85.9876 38.6302 85.5059 38.7051 84.9395 38.7051C84.7897 38.7051 84.6074 38.6986 84.3926 38.6855C84.1842 38.6725 84.0312 38.6595 83.9336 38.6465L83.9531 36.7227C84.0312 36.7357 84.1615 36.7454 84.3438 36.752C84.5326 36.7585 84.6693 36.7617 84.7539 36.7617C85.1315 36.7617 85.431 36.6999 85.6523 36.5762C85.8737 36.446 86.0495 36.2734 86.1797 36.0586C86.3164 35.8372 86.4368 35.5964 86.541 35.3359L87.2734 33.5488ZM84.5586 24.2812L88.1328 32.1523L88.8359 34.7109L86.9316 34.7793L81.8828 24.2812H84.5586ZM100.33 31.6836H98.3574V30.2871H100.057C100.662 30.2871 101.154 30.1992 101.531 30.0234C101.909 29.8411 102.182 29.5905 102.352 29.2715C102.527 28.946 102.615 28.5684 102.615 28.1387C102.615 27.7546 102.518 27.403 102.322 27.084C102.133 26.765 101.84 26.5111 101.443 26.3223C101.046 26.127 100.535 26.0293 99.9102 26.0293C99.4414 26.0293 99.015 26.1139 98.6309 26.2832C98.2467 26.4525 97.9408 26.6901 97.7129 26.9961C97.4915 27.3021 97.3809 27.6634 97.3809 28.0801H94.9297C94.9297 27.4616 95.0599 26.9082 95.3203 26.4199C95.5872 25.9251 95.9486 25.5052 96.4043 25.1602C96.8665 24.8151 97.3971 24.5514 97.9961 24.3691C98.6016 24.1803 99.2396 24.0859 99.9102 24.0859C100.691 24.0859 101.398 24.1738 102.029 24.3496C102.661 24.5189 103.204 24.7728 103.66 25.1113C104.116 25.4499 104.464 25.873 104.705 26.3809C104.946 26.8822 105.066 27.4648 105.066 28.1289C105.066 28.6172 104.952 29.0762 104.725 29.5059C104.503 29.9355 104.184 30.3132 103.768 30.6387C103.351 30.9642 102.85 31.2214 102.264 31.4102C101.684 31.5924 101.04 31.6836 100.33 31.6836ZM98.3574 30.834H100.33C101.118 30.834 101.818 30.9154 102.43 31.0781C103.042 31.2409 103.559 31.4785 103.982 31.791C104.406 32.1035 104.728 32.4909 104.949 32.9531C105.171 33.4089 105.281 33.9329 105.281 34.5254C105.281 35.1895 105.148 35.7819 104.881 36.3027C104.62 36.8171 104.249 37.2533 103.768 37.6113C103.286 37.9694 102.716 38.2396 102.059 38.4219C101.408 38.6042 100.691 38.6953 99.9102 38.6953C99.2786 38.6953 98.6536 38.6172 98.0352 38.4609C97.4232 38.2982 96.8665 38.0508 96.3652 37.7188C95.8704 37.3802 95.4733 36.9505 95.1738 36.4297C94.8743 35.9089 94.7246 35.2839 94.7246 34.5547H97.1855C97.1855 34.9583 97.2995 35.3294 97.5273 35.668C97.7617 36 98.0807 36.2669 98.4844 36.4688C98.8945 36.6641 99.3698 36.7617 99.9102 36.7617C100.529 36.7617 101.053 36.6641 101.482 36.4688C101.919 36.2734 102.251 36.0065 102.479 35.668C102.713 35.3294 102.83 34.9486 102.83 34.5254C102.83 34.1217 102.768 33.7734 102.645 33.4805C102.527 33.181 102.352 32.9401 102.117 32.7578C101.883 32.569 101.593 32.429 101.248 32.3379C100.903 32.2467 100.506 32.2012 100.057 32.2012H98.3574V30.834ZM110.027 34.5059L116.336 24.2812H118.787V38.5H116.336V28.2656L110.027 38.5H107.586V24.2812H110.027V34.5059ZM127.283 24.2812V38.5H124.852V24.2812H127.283ZM131.746 24.2812V26.2344H120.428V24.2812H131.746ZM135.438 29.7402H139.012C140.092 29.7402 141.017 29.9225 141.785 30.2871C142.553 30.6452 143.139 31.1497 143.543 31.8008C143.947 32.4518 144.148 33.2103 144.148 34.0762C144.148 34.7272 144.035 35.3229 143.807 35.8633C143.579 36.4036 143.243 36.8724 142.801 37.2695C142.358 37.6602 141.818 37.9629 141.18 38.1777C140.548 38.3926 139.826 38.5 139.012 38.5H133.738V24.2812H136.199V36.5566H139.012C139.63 36.5566 140.138 36.4427 140.535 36.2148C140.932 35.9805 141.225 35.6745 141.414 35.2969C141.609 34.9193 141.707 34.5059 141.707 34.0566C141.707 33.6204 141.609 33.2233 141.414 32.8652C141.225 32.5072 140.932 32.2207 140.535 32.0059C140.138 31.791 139.63 31.6836 139.012 31.6836H135.438V29.7402Z" fill="white"/>
</svg>
