<svg width="81" height="28" viewBox="0 0 81 28" fill="none" xmlns="http://www.w3.org/2000/svg">
<rect width="81" height="28" rx="8" transform="matrix(1 0 0 -1 0 28)" fill="#D02430"/>
<path d="M24.1133 14V14.3125C24.1133 14.7422 24.0573 15.1276 23.9453 15.4688C23.8333 15.8099 23.6732 16.1003 23.4648 16.3398C23.2591 16.5794 23.0117 16.763 22.7227 16.8906C22.4336 17.0156 22.1133 17.0781 21.7617 17.0781C21.4128 17.0781 21.0938 17.0156 20.8047 16.8906C20.5182 16.763 20.2695 16.5794 20.0586 16.3398C19.8477 16.1003 19.6836 15.8099 19.5664 15.4688C19.4518 15.1276 19.3945 14.7422 19.3945 14.3125V14C19.3945 13.5703 19.4518 13.1862 19.5664 12.8477C19.681 12.5065 19.8424 12.2161 20.0508 11.9766C20.2617 11.7344 20.5104 11.5508 20.7969 11.4258C21.0859 11.2982 21.4049 11.2344 21.7539 11.2344C22.1055 11.2344 22.4258 11.2982 22.7148 11.4258C23.0039 11.5508 23.2526 11.7344 23.4609 11.9766C23.6693 12.2161 23.8294 12.5065 23.9414 12.8477C24.056 13.1862 24.1133 13.5703 24.1133 14ZM23.1328 14.3125V13.9922C23.1328 13.6745 23.1016 13.3945 23.0391 13.1523C22.9792 12.9076 22.8893 12.7031 22.7695 12.5391C22.6523 12.3724 22.5078 12.2474 22.3359 12.1641C22.1641 12.0781 21.9701 12.0352 21.7539 12.0352C21.5378 12.0352 21.3451 12.0781 21.1758 12.1641C21.0065 12.2474 20.862 12.3724 20.7422 12.5391C20.625 12.7031 20.5352 12.9076 20.4727 13.1523C20.4102 13.3945 20.3789 13.6745 20.3789 13.9922V14.3125C20.3789 14.6302 20.4102 14.9115 20.4727 15.1562C20.5352 15.401 20.6263 15.6081 20.7461 15.7773C20.8685 15.944 21.0143 16.0703 21.1836 16.1562C21.3529 16.2396 21.5456 16.2812 21.7617 16.2812C21.9805 16.2812 22.1745 16.2396 22.3438 16.1562C22.513 16.0703 22.6562 15.944 22.7734 15.7773C22.8906 15.6081 22.9792 15.401 23.0391 15.1562C23.1016 14.9115 23.1328 14.6302 23.1328 14.3125ZM27.2383 11.3125V17H26.2656V11.3125H27.2383ZM29.0234 11.3125V12.0938H24.4961V11.3125H29.0234ZM33.4102 11.3125V12.0938H30.7695V17H29.793V11.3125H33.4102ZM36.3867 14.8789H34.9062V14.1016H36.3867C36.6445 14.1016 36.8529 14.0599 37.0117 13.9766C37.1706 13.8932 37.2865 13.7786 37.3594 13.6328C37.4349 13.4844 37.4727 13.3151 37.4727 13.125C37.4727 12.9453 37.4349 12.7773 37.3594 12.6211C37.2865 12.4622 37.1706 12.3346 37.0117 12.2383C36.8529 12.1419 36.6445 12.0938 36.3867 12.0938H35.207V17H34.2266V11.3125H36.3867C36.8268 11.3125 37.2005 11.3906 37.5078 11.5469C37.8177 11.7005 38.0534 11.9141 38.2148 12.1875C38.3763 12.4583 38.457 12.7682 38.457 13.1172C38.457 13.4844 38.3763 13.7995 38.2148 14.0625C38.0534 14.3255 37.8177 14.5273 37.5078 14.668C37.2005 14.8086 36.8268 14.8789 36.3867 14.8789ZM41.1094 15.0195L42.5547 11.3125H43.6367L41.6602 15.9688C41.5977 16.112 41.526 16.2513 41.4453 16.3867C41.3672 16.5195 41.2721 16.638 41.1602 16.7422C41.0482 16.8464 40.9128 16.9297 40.7539 16.9922C40.5951 17.0521 40.4023 17.082 40.1758 17.082C40.1159 17.082 40.043 17.0794 39.957 17.0742C39.8737 17.069 39.8125 17.0638 39.7734 17.0586L39.7812 16.2891C39.8125 16.2943 39.8646 16.2982 39.9375 16.3008C40.013 16.3034 40.0677 16.3047 40.1016 16.3047C40.2526 16.3047 40.3724 16.2799 40.4609 16.2305C40.5495 16.1784 40.6198 16.1094 40.6719 16.0234C40.7266 15.9349 40.7747 15.8385 40.8164 15.7344L41.1094 15.0195ZM40.0234 11.3125L41.4531 14.4609L41.7344 15.4844L40.9727 15.5117L38.9531 11.3125H40.0234ZM46.332 14.2734H45.543V13.7148H46.2227C46.4648 13.7148 46.6615 13.6797 46.8125 13.6094C46.9635 13.5365 47.0729 13.4362 47.1406 13.3086C47.2109 13.1784 47.2461 13.0273 47.2461 12.8555C47.2461 12.7018 47.207 12.5612 47.1289 12.4336C47.0534 12.306 46.9362 12.2044 46.7773 12.1289C46.6185 12.0508 46.4141 12.0117 46.1641 12.0117C45.9766 12.0117 45.806 12.0456 45.6523 12.1133C45.4987 12.181 45.3763 12.276 45.2852 12.3984C45.1966 12.5208 45.1523 12.6654 45.1523 12.832H44.1719C44.1719 12.5846 44.224 12.3633 44.3281 12.168C44.4349 11.9701 44.5794 11.8021 44.7617 11.6641C44.9466 11.526 45.1589 11.4206 45.3984 11.3477C45.6406 11.2721 45.8958 11.2344 46.1641 11.2344C46.4766 11.2344 46.7591 11.2695 47.0117 11.3398C47.2643 11.4076 47.4818 11.5091 47.6641 11.6445C47.8464 11.7799 47.9857 11.9492 48.082 12.1523C48.1784 12.3529 48.2266 12.5859 48.2266 12.8516C48.2266 13.0469 48.181 13.2305 48.0898 13.4023C48.0013 13.5742 47.8737 13.7253 47.707 13.8555C47.5404 13.9857 47.3398 14.0885 47.1055 14.1641C46.8737 14.237 46.6159 14.2734 46.332 14.2734ZM45.543 13.9336H46.332C46.6471 13.9336 46.9271 13.9661 47.1719 14.0312C47.4167 14.0964 47.6237 14.1914 47.793 14.3164C47.9622 14.4414 48.0911 14.5964 48.1797 14.7812C48.2682 14.9635 48.3125 15.1732 48.3125 15.4102C48.3125 15.6758 48.2591 15.9128 48.1523 16.1211C48.0482 16.3268 47.8997 16.5013 47.707 16.6445C47.5143 16.7878 47.2865 16.8958 47.0234 16.9688C46.763 17.0417 46.4766 17.0781 46.1641 17.0781C45.9115 17.0781 45.6615 17.0469 45.4141 16.9844C45.1693 16.9193 44.9466 16.8203 44.7461 16.6875C44.5482 16.5521 44.3893 16.3802 44.2695 16.1719C44.1497 15.9635 44.0898 15.7135 44.0898 15.4219H45.0742C45.0742 15.5833 45.1198 15.7318 45.2109 15.8672C45.3047 16 45.4323 16.1068 45.5938 16.1875C45.7578 16.2656 45.9479 16.3047 46.1641 16.3047C46.4115 16.3047 46.6211 16.2656 46.793 16.1875C46.9674 16.1094 47.1003 16.0026 47.1914 15.8672C47.2852 15.7318 47.332 15.5794 47.332 15.4102C47.332 15.2487 47.3073 15.1094 47.2578 14.9922C47.2109 14.8724 47.1406 14.776 47.0469 14.7031C46.9531 14.6276 46.8372 14.5716 46.6992 14.5352C46.5612 14.4987 46.4023 14.4805 46.2227 14.4805H45.543V13.9336ZM50.2109 15.4023L52.7344 11.3125H53.7148V17H52.7344V12.9062L50.2109 17H49.2344V11.3125H50.2109V15.4023ZM57.1133 11.3125V17H56.1406V11.3125H57.1133ZM58.8984 11.3125V12.0938H54.3711V11.3125H58.8984ZM60.375 13.4961H61.8047C62.237 13.4961 62.6068 13.569 62.9141 13.7148C63.2214 13.8581 63.4557 14.0599 63.6172 14.3203C63.7786 14.5807 63.8594 14.8841 63.8594 15.2305C63.8594 15.4909 63.8138 15.7292 63.7227 15.9453C63.6315 16.1615 63.4974 16.349 63.3203 16.5078C63.1432 16.6641 62.9271 16.7852 62.6719 16.8711C62.4193 16.957 62.1302 17 61.8047 17H59.6953V11.3125H60.6797V16.2227H61.8047C62.0521 16.2227 62.2552 16.1771 62.4141 16.0859C62.5729 15.9922 62.6901 15.8698 62.7656 15.7188C62.8438 15.5677 62.8828 15.4023 62.8828 15.2227C62.8828 15.0482 62.8438 14.8893 62.7656 14.7461C62.6901 14.6029 62.5729 14.4883 62.4141 14.4023C62.2552 14.3164 62.0521 14.2734 61.8047 14.2734H60.375V13.4961Z" fill="white"/>
</svg>
